<?xml version="1.0" standalone="no"?>
<!DOCTYPE svg PUBLIC "-//W3C//DTD SVG 20010904//EN"
 "http://www.w3.org/TR/2001/REC-SVG-20010904/DTD/svg10.dtd">
<svg version="1.0" xmlns="http://www.w3.org/2000/svg"
 width="500.000000pt" height="500.000000pt" viewBox="0 0 500.000000 500.000000"
 preserveAspectRatio="xMidYMid meet">
<metadata>
Created by potrace 1.11, written by Peter Selinger 2001-2013
</metadata>
<g transform="translate(0.000000,500.000000) scale(0.100000,-0.100000)"
fill="#000000" stroke="none">
<path d="M2344 4892 c-6 -4 -13 -26 -16 -49 -3 -23 -35 -102 -71 -175 -74
-153 -90 -195 -89 -249 1 -72 47 -106 151 -113 43 -3 58 -16 60 -52 1 -10 -60
-10 -105 1 -18 4 -24 -3 -39 -41 -33 -86 -31 -93 52 -248 9 -16 17 -46 19 -66
1 -21 12 -66 23 -100 26 -80 26 -90 -1 -91 -29 -1 -57 -4 -134 -13 l-62 -7
-45 63 c-25 35 -56 74 -69 88 -13 14 -37 43 -53 65 -17 22 -38 49 -48 60 -9
10 -23 36 -29 57 -7 25 -17 38 -28 38 -21 0 -67 -83 -104 -188 -31 -86 -36
-110 -43 -182 -3 -30 -8 -58 -11 -61 -4 -4 -65 -17 -137 -29 -134 -22 -178
-35 -279 -77 -32 -13 -61 -22 -64 -19 -3 3 5 39 16 80 33 111 27 155 -27 225
-18 24 -21 24 -62 11 -80 -25 -86 -24 -81 10 2 16 10 30 18 30 27 0 122 48
137 70 28 40 16 99 -36 176 -26 38 -65 89 -88 114 -58 64 -129 165 -129 183 0
14 -28 37 -44 37 -5 0 -27 -43 -67 -135 -63 -144 -83 -298 -48 -371 27 -57 79
-84 158 -84 65 0 74 -9 47 -45 -10 -14 -29 -19 -72 -22 -33 -1 -75 -5 -94 -7
-19 -3 -42 -5 -52 -5 -9 -1 -30 -22 -48 -48 -39 -60 -37 -98 11 -198 18 -38
40 -105 49 -148 l17 -77 -46 -38 c-98 -79 -167 -169 -177 -230 -2 -15 -9 -49
-15 -77 -18 -84 -22 -126 -23 -216 0 -73 4 -90 23 -118 12 -17 36 -38 52 -46
l29 -16 0 -222 0 -223 -34 -17 c-23 -11 -37 -26 -44 -49 -10 -34 -24 -177 -26
-280 -1 -52 -4 -60 -35 -85 -60 -50 -118 -135 -140 -208 -67 -217 105 -424
492 -589 20 -9 52 -22 70 -30 71 -31 354 -113 452 -132 11 -2 31 -6 45 -9 62
-13 240 -45 285 -51 17 -2 53 -6 80 -10 90 -12 85 -11 270 -29 343 -33 966
-18 1265 31 14 2 50 6 80 10 197 22 623 127 794 197 123 50 336 166 344 188 2
5 8 9 13 9 22 0 129 119 158 175 44 87 53 152 31 235 -23 85 -121 206 -225
275 -22 15 -42 29 -44 31 -3 3 -6 39 -7 82 -1 54 4 91 17 125 35 89 43 166 22
209 -9 16 -21 32 -28 35 -10 3 -14 41 -14 161 0 85 4 161 9 167 36 43 67 328
48 435 -27 152 -179 312 -355 375 -50 18 -53 21 -55 54 -2 58 -1 94 5 121 17
77 25 128 23 141 -7 35 -27 69 -58 98 -32 30 -36 31 -103 27 -38 -3 -81 -9
-94 -13 -34 -13 -75 -4 -90 19 -15 24 -2 38 38 38 49 0 109 39 130 83 28 61
20 126 -29 227 -56 117 -180 283 -204 274 -7 -3 -18 -29 -25 -59 -7 -29 -37
-102 -67 -162 -98 -195 -114 -265 -73 -317 28 -36 45 -43 114 -51 61 -7 75
-16 75 -48 0 -15 -7 -16 -65 -11 -64 6 -65 6 -76 -22 -32 -84 -25 -138 24
-208 15 -22 17 -28 6 -24 -28 11 -208 70 -221 72 -53 11 -68 20 -68 40 -1 49
-83 177 -173 268 -47 48 -97 116 -112 151 -8 20 -22 37 -30 37 -24 0 -104
-182 -121 -273 -3 -18 -9 -50 -13 -72 -6 -36 -9 -40 -31 -36 -14 3 -53 5 -87
5 -73 1 -69 -5 -78 143 -4 64 -1 111 10 158 18 80 21 135 9 157 -5 8 -24 32
-42 53 -30 34 -38 37 -80 36 -26 0 -58 -3 -72 -6 -83 -18 -121 -18 -135 1 -23
31 -18 41 25 47 57 7 112 39 133 75 18 30 23 91 13 138 -15 71 -121 251 -198
337 -36 40 -37 40 -54 29z"/>
</g>
</svg>
